<svg width="969" height="31" viewBox="0 0 969 31" fill="none" xmlns="http://www.w3.org/2000/svg">
<path d="M0.666734 17.0393C0.690186 24.403 6.6787 30.3535 14.0425 30.3301C21.4062 30.3066 27.3567 24.3181 27.3333 16.9544C27.3098 9.5906 21.3213 3.64011 13.9575 3.66356C6.59378 3.68701 0.643283 9.67553 0.666734 17.0393ZM941.667 14.0425C941.69 21.4062 947.679 27.3567 955.042 27.3333C962.406 27.3098 968.357 21.3213 968.333 13.9575C968.31 6.59379 962.321 0.643294 954.958 0.666745C947.594 0.690197 941.643 6.67871 941.667 14.0425ZM14.008 19.4968L955.008 16.5L954.992 11.5L13.992 14.4968L14.008 19.4968Z" fill="white"/>
</svg>
