<svg width="951" height="28" viewBox="0 0 951 28" fill="none" xmlns="http://www.w3.org/2000/svg">
<path d="M0.666734 13.9819C0.690186 21.3457 6.6787 27.2962 14.0425 27.2727C21.4062 27.2493 27.3567 21.2607 27.3333 13.897C27.3098 6.53323 21.3213 0.582736 13.9575 0.606187C6.59378 0.629639 0.643283 6.61816 0.666734 13.9819ZM923.662 13.9819C923.685 21.3457 929.674 27.2962 937.038 27.2727C944.401 27.2493 950.352 21.2607 950.328 13.897C950.305 6.53323 944.316 0.582736 936.953 0.606187C929.589 0.629639 923.638 6.61816 923.662 13.9819ZM14 16.4395L936.995 16.4395L936.995 11.4395L14 11.4395L14 16.4395Z" fill="white"/>
</svg>
